<?xml version="1.0" standalone="no"?>
<!DOCTYPE svg PUBLIC "-//W3C//DTD SVG 20010904//EN"
 "http://www.w3.org/TR/2001/REC-SVG-20010904/DTD/svg10.dtd">
<svg version="1.0" xmlns="http://www.w3.org/2000/svg"
 width="400.000000pt" height="400.000000pt" viewBox="0 0 400.000000 400.000000"
 preserveAspectRatio="xMidYMid meet">
<metadata>
Created by potrace 1.14, written by Peter Selinger 2001-2017
</metadata>
<g transform="translate(0.000000,400.000000) scale(0.100000,-0.100000)"
fill="#000000" stroke="none">
<path d="M0 2000 l0 -2000 2000 0 2000 0 0 2000 0 2000 -2000 0 -2000 0 0
-2000z m2311 1630 c128 -13 240 -35 338 -66 117 -38 288 -128 351 -185 l55
-51 -65 47 c-36 26 -110 69 -165 95 -211 102 -393 142 -660 144 -180 1 -237
-6 -440 -54 -304 -72 -561 -207 -680 -357 -92 -116 -174 -325 -196 -498 -6
-46 -21 -103 -36 -134 -21 -46 -24 -63 -20 -120 4 -43 3 -55 -2 -36 -16 57
-12 133 9 173 11 21 24 74 30 117 29 231 135 466 258 576 162 145 397 251 694
314 212 45 342 53 529 35z m-188 -122 c50 1 80 -4 113 -19 54 -26 69 -45 17
-22 -22 10 -69 18 -113 19 -41 1 -96 5 -122 9 -47 8 -85 -6 -73 -26 3 -4 -7
-2 -22 6 -46 24 -100 18 -183 -20 -41 -19 -108 -44 -149 -56 -52 -15 -75 -27
-78 -40 -3 -11 -13 -19 -22 -19 -31 -1 -101 -39 -112 -62 -6 -13 -37 -36 -72
-52 -58 -28 -137 -97 -185 -160 -34 -44 -39 -22 -7 25 41 58 117 124 181 155
30 15 63 39 74 55 11 15 41 35 68 45 26 10 52 25 59 34 6 9 47 27 90 40 43 12
105 37 138 54 51 26 71 30 137 31 42 0 80 4 85 9 4 4 31 5 58 1 28 -5 81 -7
118 -7z m9 -73 c-2 -14 -8 -22 -13 -19 -5 3 -5 14 1 25 14 26 18 24 12 -6z
m207 21 c-2 -2 -20 -11 -39 -20 l-35 -17 25 20 c14 11 31 21 39 21 8 0 12 -2
10 -4z m111 -12 l25 -15 -25 7 c-14 3 -29 10 -34 15 -16 14 6 10 34 -7z m45
-24 c-3 -5 -11 -10 -16 -10 -6 0 -7 5 -4 10 3 6 11 10 16 10 6 0 7 -4 4 -10z
m-545 -51 c-36 -30 -48 -75 -49 -175 -1 -48 -3 -51 -40 -72 -55 -31 -61 -27
-16 12 38 34 39 36 43 121 4 84 6 87 36 107 l31 19 -55 -4 c-167 -13 -289 -29
-318 -44 -38 -19 -112 -107 -112 -133 0 -20 -19 -30 -59 -30 -18 0 -42 -14
-74 -45 -26 -24 -65 -50 -88 -56 -46 -14 -76 -49 -105 -122 -13 -33 -28 -54
-49 -64 -48 -25 -65 -44 -65 -75 0 -15 -4 -28 -10 -28 -5 0 -10 14 -10 31 0
32 42 82 78 93 10 3 31 35 47 71 33 75 55 98 109 115 21 7 56 30 78 52 29 29
51 42 80 45 32 5 42 12 53 37 18 39 39 66 53 66 6 0 13 9 17 19 15 48 64 60
368 88 37 3 70 11 74 16 4 7 8 6 11 -3 3 -8 -10 -26 -28 -41z m170 20 c0 -10
-29 -69 -40 -79 -3 -3 -18 -24 -33 -47 -15 -24 -29 -43 -32 -43 -9 0 9 36 47
94 21 33 38 66 38 73 0 7 5 13 10 13 6 0 10 -5 10 -11z m161 -10 c21 -18 21
-20 4 -14 -11 4 -30 10 -42 12 -13 3 -23 9 -23 14 0 17 38 9 61 -12z m344 -3
c31 -15 42 -25 30 -25 -21 -1 -105 34 -105 44 0 11 26 4 75 -19z m-189 -15
c-27 -28 -66 -47 -66 -32 0 10 71 61 84 61 5 0 -3 -13 -18 -29z m44 -21 c0 -5
-5 -10 -11 -10 -5 0 -7 5 -4 10 3 6 8 10 11 10 2 0 4 -4 4 -10z m140 -8 c0 -5
-11 -19 -25 -32 -14 -13 -25 -20 -25 -15 0 4 8 14 18 21 16 12 15 13 -5 14
-13 0 -23 5 -23 10 0 6 14 10 30 10 17 0 30 -4 30 -8z m189 -32 c24 -9 39 -20
34 -23 -6 -4 -27 0 -47 8 -19 8 -44 15 -54 15 -10 0 -27 7 -38 15 -18 14 -16
15 21 9 22 -4 60 -14 84 -24z m-1179 -4 c0 -2 -16 -37 -35 -77 -21 -45 -34
-65 -35 -52 0 29 46 133 59 133 6 0 11 -2 11 -4z m900 -11 c-7 -8 -17 -15 -22
-15 -6 0 -5 7 2 15 7 8 17 15 22 15 6 0 5 -7 -2 -15z m-170 -15 c0 -5 -8 -10
-17 -10 -15 0 -16 2 -3 10 19 12 20 12 20 0z m-567 -19 c-17 -11 -61 -76 -66
-96 -4 -19 -5 -18 -6 2 0 12 4 25 9 28 6 4 8 10 5 15 -8 12 45 71 57 64 6 -4
6 -9 1 -13z m377 -1 c0 -5 -12 -10 -26 -10 -14 0 -23 4 -19 10 3 6 15 10 26
10 10 0 19 -4 19 -10z m78 -18 c3 -9 -4 -9 -27 -1 -17 6 -31 15 -31 19 0 12
53 -4 58 -18z m52 24 c0 -2 -7 -6 -15 -10 -8 -3 -15 -1 -15 4 0 6 7 10 15 10
8 0 15 -2 15 -4z m344 -39 l-27 -24 33 -1 c18 0 36 -4 39 -9 13 -18 53 -34 72
-28 10 4 19 4 19 1 0 -3 -18 -10 -41 -16 -22 -6 -47 -14 -56 -17 -11 -4 -14
-2 -9 5 4 7 17 12 29 12 20 1 20 2 5 11 -10 5 -20 10 -23 9 -3 0 -20 6 -38 13
-17 8 -38 12 -44 10 -24 -9 -12 12 20 34 43 29 55 29 21 0z m157 5 c-5 -10
-16 -24 -23 -30 -11 -8 -14 -7 -15 7 -1 15 21 35 45 40 1 1 -2 -7 -7 -17z m59
-2 c0 -5 -2 -10 -4 -10 -3 0 -8 5 -11 10 -3 6 -1 10 4 10 6 0 11 -4 11 -10z
m65 -16 c39 -26 29 -34 -15 -13 -22 11 -40 22 -40 24 0 11 32 4 55 -11z m-355
-4 c0 -5 -20 -10 -45 -10 -25 0 -45 5 -45 10 0 6 20 10 45 10 25 0 45 -4 45
-10z m-564 -16 c-3 -9 -6 -22 -6 -30 0 -9 -4 -13 -9 -10 -11 7 -2 56 11 56 6
0 7 -7 4 -16z m256 -46 c-7 -7 -12 -8 -12 -3 0 5 -12 -2 -27 -16 -26 -23 -26
-23 2 12 18 21 34 33 40 28 5 -6 4 -14 -3 -21z m699 9 c-10 -9 -11 -8 -5 6 3
10 9 15 12 12 3 -3 0 -11 -7 -18z m-310 -17 c-13 -11 -28 -20 -35 -20 -6 0 3
9 19 19 39 25 46 25 16 1z m-281 -10 c0 -5 -4 -10 -10 -10 -5 0 -10 5 -10 10
0 6 5 10 10 10 6 0 10 -4 10 -10z m565 0 c22 -9 16 -13 -37 -24 -14 -3 -34 -9
-45 -13 -12 -4 -9 2 10 20 29 28 39 31 72 17z m-928 -32 c-3 -7 -5 -2 -5 12 0
14 2 19 5 13 2 -7 2 -19 0 -25z m749 4 c-17 -16 -18 -16 -5 5 7 12 15 20 18
17 3 -2 -3 -12 -13 -22z m58 12 c25 -10 19 -22 -9 -16 -14 2 -25 8 -25 13 0
10 12 11 34 3z m-1049 -49 c-21 -19 -41 -35 -44 -35 -3 0 -15 -18 -25 -40 -17
-35 -23 -40 -53 -40 -36 0 -50 18 -37 48 6 14 8 11 13 -13 4 -20 9 -26 14 -17
5 7 12 10 17 7 4 -3 24 17 44 45 20 27 43 50 51 50 8 0 15 5 15 10 0 6 7 10
15 10 8 0 15 5 15 12 0 6 3 9 6 5 4 -3 -11 -22 -31 -42z m425 35 c0 -5 -5 -10
-11 -10 -5 0 -7 5 -4 10 3 6 8 10 11 10 2 0 4 -4 4 -10z m176 -17 c-10 -10
-19 5 -10 18 6 11 8 11 12 0 2 -7 1 -15 -2 -18z m-56 2 c0 -10 -30 -65 -35
-65 -5 0 4 49 12 63 5 8 23 10 23 2z m125 -20 c-16 -14 -34 -25 -40 -25 -9 0
55 49 65 49 3 0 -8 -11 -25 -24z m271 10 c-7 -18 5 -19 24 -2 8 6 4 0 -9 -15
-31 -36 -39 -35 -33 2 2 17 9 30 14 30 6 0 8 -7 4 -15z m84 5 c0 -5 -5 -10
-11 -10 -5 0 -7 5 -4 10 3 6 8 10 11 10 2 0 4 -4 4 -10z m110 -10 c0 -5 -7 -7
-15 -4 -8 4 -15 8 -15 10 0 2 7 4 15 4 8 0 15 -4 15 -10z m-1550 -14 c0 -3 -4
-8 -10 -11 -5 -3 -10 -1 -10 4 0 6 5 11 10 11 6 0 10 -2 10 -4z m1450 -32 c0
-8 -4 -14 -9 -14 -6 0 -9 9 -8 19 1 22 17 18 17 -5z m-1689 6 c5 0 9 -5 9 -11
0 -7 -10 -9 -25 -6 -22 4 -32 -4 -64 -49 -23 -32 -46 -81 -56 -119 -10 -36
-22 -65 -26 -65 -13 0 -11 11 10 79 33 106 94 190 129 176 8 -3 18 -5 23 -5z
m899 3 c0 -14 -19 -38 -25 -32 -8 8 5 39 16 39 5 0 9 -3 9 -7z m240 -8 c0 -8
-7 -15 -16 -15 -14 0 -14 3 -4 15 7 8 14 15 16 15 2 0 4 -7 4 -15z m659 -7
c-7 -13 -25 -34 -41 -48 -35 -29 -48 -98 -29 -151 11 -31 9 -35 -21 -64 -18
-16 -23 -19 -13 -6 17 20 20 35 16 112 l-3 89 48 45 c27 25 50 45 52 45 1 0
-3 -10 -9 -22z m41 12 c0 -5 -4 -10 -10 -10 -5 0 -10 5 -10 10 0 6 5 10 10 10
6 0 10 -4 10 -10z m-240 -48 c0 -20 -37 -55 -45 -43 -2 5 2 14 10 21 8 7 15
21 15 32 0 10 5 16 10 13 6 -3 10 -14 10 -23z m350 25 c0 -2 -12 -14 -27 -28
l-28 -24 24 28 c23 25 31 32 31 24z m-1160 -27 c0 -5 -9 -10 -21 -10 -11 0
-17 5 -14 10 3 6 13 10 21 10 8 0 14 -4 14 -10z m-643 -50 c-19 -44 -24 -49
-56 -52 -34 -3 -38 -8 -71 -73 -33 -67 -36 -70 -67 -67 -18 2 -42 -2 -53 -8
-12 -6 -25 -9 -28 -5 -13 12 32 35 68 35 35 0 38 3 64 59 25 55 54 81 91 81 8
0 24 18 35 40 29 57 42 50 17 -10z m147 21 c-2 -3 -12 3 -22 13 -16 17 -16 18
5 5 12 -7 20 -15 17 -18z m439 -19 c-5 -41 -6 -42 -24 -26 -20 18 -26 40 -9
29 5 -3 15 5 22 19 15 35 18 29 11 -22z m-261 16 c-6 -6 -16 -7 -22 -3 -9 6
-9 9 1 16 17 10 34 0 21 -13z m383 5 c-4 -10 -10 -26 -12 -35 -6 -19 -23 -25
-23 -8 0 5 5 21 12 35 12 28 34 35 23 8z m-446 -10 c-7 -10 -14 -20 -16 -22
-1 -1 -7 0 -13 4 -14 9 6 35 27 35 13 0 13 -3 2 -17z m221 3 c0 -9 -7 -12 -20
-9 -31 8 -34 23 -6 23 16 0 26 -6 26 -14z m1454 -46 c6 -8 1 -7 -11 4 -13 10
-20 23 -16 29 4 7 8 6 11 -3 3 -8 10 -22 16 -30z m-1844 20 c0 -5 -4 -10 -10
-10 -5 0 -10 5 -10 10 0 6 5 10 10 10 6 0 10 -4 10 -10z m200 6 c0 -3 -4 -8
-10 -11 -5 -3 -10 -1 -10 4 0 6 5 11 10 11 6 0 10 -2 10 -4z m-90 -36 c-14
-11 -28 -20 -31 -20 -3 0 -12 -11 -19 -25 -12 -22 -30 -26 -30 -7 0 19 61 72
82 72 l23 0 -25 -20z m78 -47 c-2 -28 -7 -46 -13 -43 -5 3 -8 10 -6 15 2 6 4
25 3 43 0 17 4 32 10 32 5 0 8 -21 6 -47z m1605 22 c-3 -8 0 -15 6 -15 6 0 11
-4 11 -10 0 -13 -64 16 -68 32 -2 9 0 9 8 -2 10 -13 12 -13 23 2 13 20 29 14
20 -7z m-1199 0 c3 -8 1 -15 -4 -15 -6 0 -10 7 -10 15 0 8 2 15 4 15 2 0 6 -7
10 -15z m360 -4 c6 -8 -25 -21 -51 -21 -19 0 -15 18 5 23 29 8 41 7 46 -2z
m-692 -41 c-6 -41 -12 -38 -12 6 0 19 4 33 8 30 5 -3 7 -19 4 -36z m385 34
c-3 -3 -12 -4 -19 -1 -8 3 -5 6 6 6 11 1 17 -2 13 -5z m163 -4 c0 -5 -6 -10
-14 -10 -8 0 -18 5 -21 10 -3 6 3 10 14 10 12 0 21 -4 21 -10z m1079 -36 c11
-14 23 -34 26 -45 4 -11 11 -16 17 -13 7 4 8 2 4 -5 -4 -6 -3 -18 4 -26 18
-21 16 -223 -2 -265 -21 -48 -88 -122 -104 -116 -33 12 -69 -14 -86 -62 -40
-111 -124 -197 -265 -270 -40 -20 -73 -42 -73 -49 0 -7 7 -62 15 -123 16 -110
44 -220 71 -272 8 -16 11 -28 7 -28 -27 0 -110 322 -105 411 0 14 -14 17 -91
21 -128 7 -194 34 -274 114 -35 34 -63 70 -63 81 1 12 8 5 20 -19 26 -49 94
-103 171 -135 53 -23 79 -27 154 -28 90 0 90 0 179 50 105 58 184 131 218 200
33 65 42 105 26 106 -25 1 48 28 78 29 23 0 38 9 61 38 40 50 53 98 53 198 0
67 -3 83 -17 88 -9 4 -20 1 -25 -6 -4 -8 -8 8 -8 38 0 50 -17 83 -35 66 -5 -4
-5 -2 -2 4 4 7 0 17 -8 24 -7 6 -11 18 -8 26 7 18 34 4 62 -32z m45 40 c9 -3
13 -10 10 -15 -3 -5 -1 -9 5 -9 6 0 7 -7 4 -17 -5 -12 -3 -14 7 -8 9 6 11 4 5
-5 -4 -7 -3 -15 2 -19 6 -3 8 -13 4 -22 -4 -11 -14 2 -33 42 -15 33 -25 59
-23 59 2 0 10 -3 19 -6z m-870 -28 c-10 -8 -21 -12 -24 -10 -5 6 21 24 34 24
6 0 1 -6 -10 -14z m204 -6 c-7 -11 -15 -15 -17 -9 -2 6 3 15 10 20 20 12 21
11 7 -11z m492 7 c0 -25 -30 -55 -82 -79 -61 -29 -93 -61 -83 -80 4 -7 0 -5
-11 4 -17 17 -17 18 7 44 13 14 50 39 83 56 33 17 60 38 63 49 6 21 23 26 23
6z m-1160 -14 c1 -17 1 -17 14 0 7 9 26 17 42 17 25 0 22 -4 -30 -35 -32 -19
-68 -35 -80 -34 l-21 0 22 9 c23 10 46 43 36 54 -3 3 -1 6 5 6 7 0 12 -8 12
-17z m340 13 c0 -2 -7 -6 -15 -10 -8 -3 -15 -1 -15 4 0 6 7 10 15 10 8 0 15
-2 15 -4z m-430 -36 c0 -11 -4 -20 -9 -20 -5 0 -7 9 -4 20 3 11 7 20 9 20 2 0
4 -9 4 -20z m1343 -23 c4 3 7 -8 7 -24 0 -17 -6 -34 -12 -36 -10 -4 -9 -8 2
-16 13 -9 11 -11 -6 -11 -20 0 -21 3 -14 34 4 19 4 40 0 47 -6 8 -11 0 -15
-24 -4 -20 -11 -35 -15 -32 -5 3 -6 -4 -3 -15 7 -27 -5 -25 -18 3 -9 20 -9 20
-5 -6 2 -19 0 -25 -6 -19 -14 14 0 85 14 76 7 -5 7 -1 0 11 -7 13 -6 24 1 37
11 16 13 16 37 -7 15 -14 29 -22 33 -18z m187 -16 c14 -76 15 -355 1 -430 -20
-103 -55 -190 -206 -501 -79 -162 -148 -311 -153 -330 -6 -19 -21 -89 -33
-155 -26 -146 -22 -334 11 -484 11 -52 18 -96 15 -99 -17 -18 -65 281 -65 408
0 99 40 324 68 390 11 25 79 167 152 315 144 295 183 397 200 523 11 80 7 330
-6 397 -4 17 -4 27 0 24 3 -3 10 -29 16 -58z m-1013 27 c-3 -8 -6 -5 -6 6 -1
11 2 17 5 13 3 -3 4 -12 1 -19z m-872 2 c3 -5 -3 -10 -14 -10 -12 0 -21 5 -21
10 0 6 6 10 14 10 8 0 18 -4 21 -10z m145 -5 c-14 -8 -36 -14 -49 -15 -31 0
-24 7 13 14 16 3 31 8 34 11 3 3 10 5 16 5 6 -1 0 -7 -14 -15z m366 0 c-11 -8
-24 -15 -30 -15 -5 0 -1 7 10 15 10 8 24 14 29 14 6 0 1 -6 -9 -14z m184 11
c0 -2 -7 -7 -16 -10 -8 -3 -12 -2 -9 4 6 10 25 14 25 6z m-800 -36 c-14 -11
-33 -27 -42 -37 -10 -9 -21 -13 -25 -9 -10 10 56 66 77 66 10 -1 7 -7 -10 -20z
m-443 -2 c-9 -7 -17 -31 -19 -53 l-4 -40 -8 37 c-10 48 -3 68 26 68 19 0 20
-1 5 -12z m2138 -58 c0 -38 -5 -73 -10 -78 -13 -13 -382 -25 -389 -13 -3 5 36
12 87 15 185 13 191 15 186 52 -1 10 54 44 71 43 8 0 5 -4 -7 -9 -29 -12 -29
-15 2 -15 23 0 30 7 26 28 -2 11 18 47 27 47 4 0 7 -31 7 -70z m-1005 39 c-14
-11 -33 -30 -42 -42 -16 -19 -18 -20 -18 -4 0 23 44 67 67 67 15 -1 14 -4 -7
-21z m650 -28 c-6 -12 -16 -18 -25 -15 -12 5 -10 11 8 36 16 22 23 26 25 14 2
-8 -2 -24 -8 -35z m-1242 32 c-10 -2 -26 -2 -35 0 -10 3 -2 5 17 5 19 0 27 -2
18 -5z m-411 -45 c-3 -7 -5 -2 -5 12 0 14 2 19 5 13 2 -7 2 -19 0 -25z m-105
-14 c-4 -23 -6 -24 -14 -10 -11 19 -3 50 11 42 4 -3 6 -17 3 -32z m778 32 c0
-2 -7 -7 -16 -10 -8 -3 -12 -2 -9 4 6 10 25 14 25 6z m67 -21 c-26 -23 -47
-32 -47 -20 0 11 45 45 59 45 11 -1 8 -8 -12 -25z m143 19 c0 -3 -16 -20 -35
-38 -28 -27 -35 -30 -35 -16 0 10 12 28 28 39 27 20 42 26 42 15z m414 0 c12
-5 7 -11 -22 -25 -21 -11 -48 -28 -60 -39 -22 -21 -58 -28 -47 -10 5 9 105 80
112 80 1 0 9 -3 17 -6z m-762 -66 c-11 -11 -52 -2 -52 12 0 4 9 6 20 3 15 -4
21 2 27 23 l8 29 3 -29 c2 -16 -1 -33 -6 -38z m1238 35 c0 -20 -3 -24 -11 -16
-7 7 -9 19 -6 27 10 24 17 19 17 -11z m-1533 -3 c-1 -20 -8 -25 -20 -14 -7 8
3 34 13 34 5 0 8 -9 7 -20z m188 11 c30 -7 30 -7 8 -19 -15 -8 -23 -9 -23 -2
0 5 -12 10 -27 10 -16 0 -35 5 -43 10 -18 11 36 12 85 1z m332 -16 c-15 -14
-33 -25 -39 -25 -6 0 4 11 23 24 44 32 51 32 16 1z m-187 -15 c-6 -11 -13 -20
-16 -20 -2 0 0 9 6 20 6 11 13 20 16 20 2 0 0 -9 -6 -20z m1588 -8 c17 -23 15
-36 -4 -18 -17 18 -60 21 -98 6 -15 -5 -28 -5 -31 0 -7 11 10 21 49 30 39 8
67 2 84 -18z m-1881 12 c-3 -3 -12 -4 -19 -1 -8 3 -5 6 6 6 11 1 17 -2 13 -5z
m183 2 c0 -2 -8 -10 -17 -17 -16 -13 -17 -12 -4 4 13 16 21 21 21 13z m220 -6
c0 -5 -8 -10 -18 -10 -10 0 -39 -13 -65 -30 -26 -16 -47 -25 -47 -20 0 16 38
49 62 54 13 3 32 7 43 9 11 3 21 5 23 6 1 0 2 -3 2 -9z m857 -27 c43 -6 50
-23 10 -23 -38 0 -98 21 -91 31 3 6 13 8 22 4 9 -3 35 -9 59 -12z m-1517 -6
c0 -7 -16 -21 -35 -30 -28 -14 -35 -22 -35 -46 0 -17 -4 -33 -10 -36 -11 -7
-13 37 -4 70 3 11 20 27 37 36 41 21 47 22 47 6z m348 0 c28 1 52 -3 52 -8 0
-5 -1 -9 -2 -10 -44 -11 -99 -6 -133 11 l-40 20 35 -7 c19 -4 59 -7 88 -6z
m419 -19 c-3 -7 -5 -2 -5 12 0 14 2 19 5 13 2 -7 2 -19 0 -25z m103 29 c0 -2
-10 -12 -22 -23 l-23 -19 19 23 c18 21 26 27 26 19z m357 -3 c-3 -3 -12 -4
-19 -1 -8 3 -5 6 6 6 11 1 17 -2 13 -5z m-567 -9 c0 -2 -15 -12 -32 -21 l-33
-17 19 22 c17 19 46 29 46 16z m1407 -15 c1 -16 -1 -17 -12 -7 -7 6 -11 15 -8
20 8 13 19 7 20 -13z m-1024 3 c32 -8 17 -18 -30 -19 -27 0 -58 -4 -70 -8 -14
-5 -23 -4 -23 1 0 23 76 39 123 26z m91 -18 c-16 -25 -64 -36 -64 -15 0 6 6
10 14 10 7 0 19 7 26 15 7 8 19 15 26 15 12 0 11 -5 -2 -25z m1016 -12 c0 -73
-39 -133 -92 -145 -25 -5 -23 13 3 26 34 17 60 58 66 104 6 47 23 57 23 15z
m-1983 -33 c60 -3 117 -11 128 -17 11 -6 35 -8 53 -6 18 3 32 1 32 -5 0 -15
-64 -19 -96 -5 -16 7 -64 12 -107 13 -83 0 -119 12 -152 51 l-20 24 27 -24
c24 -21 41 -25 135 -31z m336 26 c-10 -13 -24 -21 -31 -18 -7 2 -20 -5 -28
-17 -14 -20 -45 -30 -43 -13 0 10 91 70 107 71 9 1 7 -6 -5 -23z m317 20 c0
-2 -7 -7 -16 -10 -8 -3 -12 -2 -9 4 6 10 25 14 25 6z m430 -1 c0 -2 -10 -9
-22 -15 -22 -11 -22 -10 -4 4 21 17 26 19 26 11z m-629 -36 c-9 -22 -10 -22
-10 -3 -1 11 2 24 6 27 12 12 14 0 4 -24z m897 11 c-7 -10 -14 -17 -17 -15 -4
4 18 35 25 35 2 0 -1 -9 -8 -20z m186 -51 c-17 -19 -44 -26 -44 -11 0 4 9 13
20 20 11 7 20 20 20 30 0 31 15 36 18 7 2 -15 -4 -35 -14 -46z m245 56 c2 -3
-17 -5 -42 -5 -26 0 -47 4 -47 10 0 9 79 5 89 -5z m-675 -43 c-18 -45 -34 -63
-34 -39 0 24 32 87 42 81 4 -3 1 -22 -8 -42z m-394 28 c0 -5 -5 -10 -11 -10
-5 0 -7 5 -4 10 3 6 8 10 11 10 2 0 4 -4 4 -10z m1181 -63 c-25 -25 -41 -15
-18 11 10 10 17 25 17 34 0 28 15 30 18 3 2 -18 -4 -35 -17 -48z m-1506 53
c-3 -5 -12 -10 -18 -10 -7 0 -6 4 3 10 19 12 23 12 15 0z m215 6 c0 -2 -7 -7
-16 -10 -8 -3 -12 -2 -9 4 6 10 25 14 25 6z m1027 -34 l-6 -27 70 -3 c74 -3
112 9 103 33 -4 9 0 15 9 15 21 0 9 -48 -16 -62 -13 -7 -51 -9 -101 -5 -59 4
-88 2 -106 -8 -28 -16 -159 -19 -227 -6 -27 5 -44 4 -46 -2 -5 -16 -149 -21
-192 -7 -25 8 -33 15 -25 20 7 5 29 2 49 -5 38 -13 46 -13 124 0 34 5 53 14
64 31 20 31 35 31 24 1 -9 -22 -8 -23 84 -25 110 -4 161 12 171 52 8 35 28 33
21 -2z m-1077 14 c0 -2 -7 -7 -16 -10 -8 -3 -12 -2 -9 4 6 10 25 14 25 6z
m-501 -39 c106 -3 197 -9 202 -14 4 -4 -61 -7 -146 -5 l-155 3 0 -23 c0 -33
-11 -43 -50 -45 -19 -1 -36 -6 -38 -12 -2 -6 -8 -9 -13 -5 -15 9 -10 24 9 24
9 0 -5 12 -33 26 -57 29 -88 54 -62 50 8 -1 21 -7 28 -13 8 -6 40 -19 72 -29
51 -16 60 -16 68 -4 15 25 11 27 -48 33 -60 5 -116 25 -108 37 3 4 22 2 42 -5
23 -7 118 -15 232 -18z m535 0 c-2 -7 -17 -20 -32 -29 -23 -13 -29 -14 -39 -2
-19 20 -16 24 15 18 19 -4 32 -1 41 10 16 19 22 20 15 3z m53 -49 c-2 -13 -4
-3 -4 22 0 25 2 35 4 23 2 -13 2 -33 0 -45z m-357 42 c0 -5 -2 -10 -4 -10 -3
0 -8 5 -11 10 -3 6 -1 10 4 10 6 0 11 -4 11 -10z m170 -10 c-6 -11 -17 -20
-25 -20 -13 0 -13 3 -3 20 7 11 19 20 26 20 10 0 10 -5 2 -20z m444 -2 c21 -2
24 -5 13 -15 -10 -11 -20 -11 -48 -2 -42 15 -43 15 -34 28 4 8 12 8 25 1 10
-6 30 -11 44 -12z m-218 -20 c-9 -12 -16 -19 -16 -15 0 11 24 47 28 42 2 -2
-3 -14 -12 -27z m374 17 c0 -8 -3 -15 -7 -15 -5 -1 -35 -3 -67 -7 -44 -4 -57
-3 -51 6 4 7 19 11 33 10 15 -1 38 3 52 9 34 15 40 14 40 -3z m-908 -25 c57
-8 83 -8 98 0 28 15 34 9 16 -15 -13 -18 -20 -18 -97 -9 -46 6 -100 18 -119
27 -40 18 -53 18 102 -3z m258 -9 c0 -5 -16 -15 -35 -21 -35 -12 -75 -6 -75
11 0 11 7 11 35 0 12 -5 25 -3 33 6 15 15 42 18 42 4z m1430 -1 c0 -5 -4 -10
-10 -10 -5 0 -10 5 -10 10 0 6 5 10 10 10 6 0 10 -4 10 -10z m-951 -46 c-26
-28 -89 -33 -109 -9 -9 10 -9 15 -1 15 6 0 11 -4 11 -9 0 -15 72 6 94 28 29
29 34 6 5 -25z m-714 6 c29 -5 57 -4 67 1 21 11 22 2 5 -26 -10 -17 -24 -20
-105 -22 -52 -2 -112 -8 -133 -13 -47 -13 -75 -6 -89 21 -6 10 -17 19 -25 19
-8 0 -15 5 -15 10 0 12 2 12 34 0 18 -7 24 -14 19 -26 -5 -14 -1 -16 28 -10
19 4 79 10 134 13 108 6 101 20 -11 22 -72 1 -126 10 -119 21 5 8 138 2 210
-10z m1665 -5 c-7 -8 -19 -15 -26 -15 -8 0 -14 -5 -14 -12 0 -6 -3 -9 -6 -5
-3 3 -27 -7 -52 -23 -103 -62 -156 -73 -401 -78 l-223 -4 -34 -31 -35 -30 -39
18 c-52 23 -75 48 -33 36 15 -5 36 -12 46 -16 12 -5 26 0 43 16 25 23 31 24
252 30 217 5 230 6 302 33 133 49 140 52 147 61 8 8 -254 1 -392 -10 -50 -5
-65 -3 -54 4 22 14 209 31 359 32 69 0 134 4 145 8 26 11 31 6 15 -14z m-1191
-28 c-9 -21 -9 -33 -1 -52 15 -32 9 -32 -12 1 -14 21 -15 31 -6 60 8 23 16 32
22 26 5 -5 4 -19 -3 -35z m-1100 -70 c1 -58 -14 -90 -88 -182 -150 -189 -261
-343 -261 -364 0 -39 18 -59 72 -79 29 -11 75 -30 101 -42 l49 -22 -4 -51 c-2
-29 -13 -82 -23 -119 -14 -50 -16 -71 -8 -79 6 -6 59 -13 117 -16 96 -5 106
-4 100 11 -3 9 -1 16 4 16 6 0 12 -10 14 -22 2 -13 9 -22 17 -20 9 2 11 -3 7
-13 -3 -9 -6 -21 -6 -26 0 -5 -4 -9 -10 -9 -5 0 -9 5 -7 12 2 13 -64 26 -145
27 -47 1 -48 0 -48 -29 0 -41 22 -81 61 -114 l32 -27 -9 -92 c-12 -136 -10
-168 11 -211 33 -65 57 -70 370 -70 196 -1 276 -4 292 -13 12 -7 37 -32 56
-55 37 -46 260 -429 253 -435 -4 -5 -44 61 -142 235 -90 159 -128 210 -169
228 -27 11 -91 14 -287 14 -143 0 -269 5 -290 10 -20 6 -51 24 -67 40 -37 38
-65 128 -57 184 4 23 8 67 11 99 5 56 3 61 -30 100 -34 40 -62 108 -51 126 3
5 -5 16 -18 25 -37 24 -40 62 -11 162 14 49 22 90 18 92 -4 1 -46 22 -93 45
-88 44 -130 86 -130 132 0 20 164 246 277 382 64 77 77 109 77 188 0 79 13 45
15 -38z m876 -18 c17 -4 48 -7 70 -8 28 -1 44 -7 53 -21 28 -45 148 -66 202
-35 14 8 36 14 50 14 24 0 25 0 5 -15 -34 -25 -120 -46 -161 -38 -21 4 -53 22
-74 40 -32 29 -45 34 -88 34 -39 0 -57 6 -80 25 -20 17 -42 25 -66 25 -32 0
-96 23 -96 35 0 2 15 -1 32 -6 18 -5 48 -9 65 -9 31 0 33 2 33 33 0 59 15 51
20 -10 5 -55 7 -58 35 -64z m625 97 c0 -8 -15 -17 -36 -21 -20 -3 -47 -17 -60
-30 -21 -21 -24 -22 -24 -6 0 23 19 40 67 57 49 17 53 17 53 0z m193 -6 c10
-10 3 -11 -37 -6 -27 3 -71 6 -97 6 -30 0 -49 4 -49 11 0 16 167 7 183 -11z
m-718 0 c3 -6 -1 -7 -9 -4 -18 7 -21 14 -7 14 6 0 13 -4 16 -10z m45 0 c13 -8
13 -10 -2 -10 -9 0 -20 5 -23 10 -8 13 5 13 25 0z m232 -35 c3 -16 1 -25 -7
-25 -8 0 -10 9 -7 25 2 14 6 25 7 25 1 0 5 -11 7 -25z m118 -30 c0 -18 -87
-79 -94 -66 -3 5 15 25 42 45 55 41 52 40 52 21z m-130 -24 c0 -12 -30 -22
-43 -14 -7 4 -3 9 9 14 26 10 34 10 34 0z m-61 -32 c-15 -9 -32 -2 -24 11 3 5
13 6 21 3 12 -4 13 -8 3 -14z m111 -66 c0 -19 -13 -9 -16 12 -1 8 2 13 7 9 5
-3 9 -12 9 -21z m14 -39 c3 -8 2 -12 -4 -9 -6 3 -10 10 -10 16 0 14 7 11 14
-7z m192 -39 c-21 -33 -20 -58 4 -80 11 -10 20 -30 20 -45 0 -52 67 -163 172
-285 156 -182 191 -225 186 -230 -2 -2 -38 37 -80 88 -42 51 -108 130 -146
175 -78 93 -145 211 -144 252 1 25 -5 29 -59 44 -43 12 -71 27 -98 54 -20 20
-28 29 -17 20 12 -9 41 -24 66 -33 25 -9 54 -21 65 -27 18 -10 18 -10 3 14
-14 21 -14 27 -2 51 8 15 22 27 30 27 15 0 15 -2 0 -25z m-1490 -292 c14 -18
19 -99 8 -127 -8 -21 -74 -22 -74 -2 0 10 9 14 27 13 26 -2 28 1 34 48 5 36 3
53 -7 61 -8 6 -14 14 -14 18 0 12 13 6 26 -11z m-88 -96 c3 -16 1 -17 -17 -7
-12 6 -43 10 -69 8 -38 -2 -47 -6 -46 -20 2 -23 -12 -23 -20 -2 -12 32 13 45
83 42 55 -2 66 -6 69 -21z m9 -33 c-3 -3 -12 -4 -19 -1 -8 3 -5 6 6 6 11 1 17
-2 13 -5z"/>
<path d="M3135 2770 c-3 -5 -1 -10 4 -10 6 0 11 5 11 10 0 6 -2 10 -4 10 -3 0
-8 -4 -11 -10z"/>
<path d="M3054 2625 c-17 -13 -17 -14 -2 -15 9 0 20 5 23 11 11 17 0 20 -21 4z"/>
</g>
</svg>
